<svg xmlns="http://www.w3.org/2000/svg" viewBox="0 0 512 512">
  <defs><linearGradient id="g" x1="0" x2="1" y1="0" y2="1"><stop stop-color="#7c3aed"/><stop offset="1" stop-color="#06b6d4"/></linearGradient></defs>
  <rect width="512" height="512" rx="112" fill="#0b1020"/>
  <rect x="52" y="52" width="408" height="408" rx="92" fill="url(#g)"/>
  <path d="M156 248c0-55 45-100 100-100s100 45 100 100v34h22c12 0 22 10 22 22v82c0 12-10 22-22 22H134c-12 0-22-10-22-22v-82c0-12 10-22 22-22h22v-34Zm54 34h92v-34c0-25-21-46-46-46s-46 21-46 46v34Z" fill="white" opacity=".96"/>
  <circle cx="256" cy="344" r="21" fill="#0b1020" opacity=".92"/>
</svg>
